<svg width="300" height="300" viewBox="0 0 300 300" fill="none" xmlns="http://www.w3.org/2000/svg">
<rect width="300" height="300" fill="white"/>
<path d="M58.8381 214.98V224.568H54.9815V208.204H58.6676V210.985H58.8594C59.2358 210.069 59.8359 209.341 60.6598 208.801C61.4908 208.261 62.517 207.991 63.7386 207.991C64.8679 207.991 65.8516 208.233 66.6896 208.716C67.5348 209.199 68.1882 209.898 68.6499 210.814C69.1186 211.731 69.3494 212.842 69.3423 214.149V224.568H65.4858V214.746C65.4858 213.652 65.2017 212.796 64.6335 212.178C64.0724 211.56 63.2947 211.251 62.3004 211.251C61.6257 211.251 61.0256 211.4 60.5 211.699C59.9815 211.99 59.5732 212.412 59.2749 212.966C58.9837 213.52 58.8381 214.192 58.8381 214.98ZM80.5071 224.888C78.8665 224.888 77.4496 224.547 76.2564 223.865C75.0703 223.176 74.1577 222.203 73.5185 220.946C72.8793 219.682 72.5597 218.194 72.5597 216.482C72.5597 214.799 72.8793 213.322 73.5185 212.05C74.1648 210.772 75.0668 209.778 76.2244 209.067C77.3821 208.35 78.7422 207.991 80.3047 207.991C81.3132 207.991 82.2649 208.155 83.1598 208.481C84.0618 208.801 84.8572 209.298 85.5462 209.973C86.2422 210.648 86.7891 211.507 87.1868 212.551C87.5845 213.588 87.7834 214.824 87.7834 216.258V217.441H74.3707V214.841H84.0866C84.0795 214.103 83.9197 213.446 83.6072 212.871C83.2947 212.288 82.858 211.83 82.2969 211.496C81.7429 211.162 81.0966 210.996 80.358 210.996C79.5696 210.996 78.8771 211.187 78.2805 211.571C77.6839 211.947 77.2188 212.444 76.8849 213.062C76.5582 213.673 76.3913 214.344 76.3842 215.076V217.345C76.3842 218.297 76.5582 219.113 76.9062 219.795C77.2543 220.47 77.7408 220.988 78.3658 221.351C78.9908 221.706 79.7223 221.883 80.5604 221.883C81.1214 221.883 81.6293 221.805 82.0838 221.649C82.5384 221.486 82.9325 221.248 83.2663 220.935C83.6001 220.623 83.8523 220.236 84.0227 219.774L87.6236 220.179C87.3963 221.13 86.9631 221.961 86.3239 222.672C85.6918 223.375 84.8821 223.922 83.8949 224.312C82.9077 224.696 81.7784 224.888 80.5071 224.888ZM94.3352 224.568L89.7116 208.204H93.6428L96.5192 219.71H96.6683L99.6087 208.204H103.497L106.438 219.646H106.597L109.431 208.204H113.373L108.739 224.568H104.722L101.654 213.51H101.43L98.3622 224.568H94.3352ZM128.999 212.53L125.483 212.913C125.384 212.558 125.21 212.224 124.961 211.912C124.72 211.599 124.393 211.347 123.981 211.155C123.569 210.964 123.065 210.868 122.468 210.868C121.666 210.868 120.991 211.042 120.444 211.39C119.904 211.738 119.638 212.189 119.645 212.743C119.638 213.219 119.812 213.606 120.167 213.904C120.529 214.202 121.126 214.447 121.957 214.639L124.748 215.236C126.296 215.569 127.447 216.099 128.2 216.823C128.96 217.547 129.343 218.496 129.35 219.667C129.343 220.697 129.041 221.606 128.445 222.395C127.855 223.176 127.035 223.787 125.984 224.227C124.933 224.667 123.725 224.888 122.362 224.888C120.359 224.888 118.747 224.469 117.525 223.63C116.303 222.785 115.575 221.61 115.341 220.104L119.102 219.742C119.272 220.481 119.634 221.038 120.188 221.415C120.742 221.791 121.463 221.979 122.351 221.979C123.267 221.979 124.002 221.791 124.556 221.415C125.117 221.038 125.398 220.573 125.398 220.019C125.398 219.55 125.217 219.163 124.855 218.858C124.499 218.552 123.945 218.318 123.193 218.155L120.401 217.569C118.832 217.242 117.671 216.692 116.918 215.917C116.165 215.136 115.792 214.149 115.799 212.956C115.792 211.947 116.066 211.074 116.619 210.335C117.181 209.589 117.958 209.014 118.953 208.609C119.954 208.197 121.108 207.991 122.415 207.991C124.333 207.991 125.842 208.4 126.943 209.216C128.051 210.033 128.736 211.138 128.999 212.53Z" fill="black"/>
<path d="M132.701 224.568V202.75H136.557V210.91H136.717C136.916 210.513 137.197 210.09 137.559 209.643C137.921 209.188 138.411 208.801 139.029 208.481C139.647 208.155 140.435 207.991 141.394 207.991C142.658 207.991 143.798 208.314 144.814 208.961C145.836 209.6 146.646 210.548 147.243 211.805C147.846 213.055 148.148 214.589 148.148 216.407C148.148 218.204 147.854 219.731 147.264 220.988C146.675 222.246 145.872 223.204 144.856 223.865C143.841 224.525 142.69 224.856 141.405 224.856C140.467 224.856 139.689 224.699 139.072 224.387C138.454 224.074 137.956 223.698 137.58 223.258C137.211 222.81 136.923 222.388 136.717 221.99H136.493V224.568H132.701ZM136.483 216.386C136.483 217.444 136.632 218.371 136.93 219.167C137.236 219.962 137.672 220.584 138.241 221.031C138.816 221.471 139.512 221.692 140.329 221.692C141.181 221.692 141.895 221.464 142.47 221.01C143.045 220.548 143.479 219.92 143.77 219.124C144.068 218.322 144.217 217.409 144.217 216.386C144.217 215.371 144.072 214.469 143.78 213.68C143.489 212.892 143.056 212.274 142.481 211.827C141.905 211.379 141.188 211.155 140.329 211.155C139.505 211.155 138.805 211.372 138.23 211.805C137.655 212.238 137.218 212.846 136.92 213.627C136.628 214.408 136.483 215.328 136.483 216.386ZM155.283 202.75V224.568H151.427V202.75H155.283ZM166.493 224.888C164.853 224.888 163.436 224.547 162.243 223.865C161.057 223.176 160.144 222.203 159.505 220.946C158.866 219.682 158.546 218.194 158.546 216.482C158.546 214.799 158.866 213.322 159.505 212.05C160.151 210.772 161.053 209.778 162.211 209.067C163.368 208.35 164.729 207.991 166.291 207.991C167.3 207.991 168.251 208.155 169.146 208.481C170.048 208.801 170.844 209.298 171.532 209.973C172.229 210.648 172.775 211.507 173.173 212.551C173.571 213.588 173.77 214.824 173.77 216.258V217.441H160.357V214.841H170.073C170.066 214.103 169.906 213.446 169.594 212.871C169.281 212.288 168.844 211.83 168.283 211.496C167.729 211.162 167.083 210.996 166.344 210.996C165.556 210.996 164.863 211.187 164.267 211.571C163.67 211.947 163.205 212.444 162.871 213.062C162.545 213.673 162.378 214.344 162.371 215.076V217.345C162.371 218.297 162.545 219.113 162.893 219.795C163.241 220.47 163.727 220.988 164.352 221.351C164.977 221.706 165.709 221.883 166.547 221.883C167.108 221.883 167.616 221.805 168.07 221.649C168.525 221.486 168.919 221.248 169.253 220.935C169.586 220.623 169.839 220.236 170.009 219.774L173.61 220.179C173.383 221.13 172.949 221.961 172.31 222.672C171.678 223.375 170.868 223.922 169.881 224.312C168.894 224.696 167.765 224.888 166.493 224.888ZM180.889 214.98V224.568H177.032V208.204H180.718V210.985H180.91C181.287 210.069 181.887 209.341 182.711 208.801C183.542 208.261 184.568 207.991 185.789 207.991C186.919 207.991 187.902 208.233 188.74 208.716C189.586 209.199 190.239 209.898 190.701 210.814C191.169 211.731 191.4 212.842 191.393 214.149V224.568H187.537V214.746C187.537 213.652 187.252 212.796 186.684 212.178C186.123 211.56 185.346 211.251 184.351 211.251C183.676 211.251 183.076 211.4 182.551 211.699C182.032 211.99 181.624 212.412 181.326 212.966C181.034 213.52 180.889 214.192 180.889 214.98ZM201.386 224.856C200.1 224.856 198.95 224.525 197.934 223.865C196.919 223.204 196.116 222.246 195.527 220.988C194.937 219.731 194.642 218.204 194.642 216.407C194.642 214.589 194.941 213.055 195.537 211.805C196.141 210.548 196.954 209.6 197.977 208.961C199 208.314 200.14 207.991 201.397 207.991C202.355 207.991 203.144 208.155 203.762 208.481C204.38 208.801 204.87 209.188 205.232 209.643C205.594 210.09 205.875 210.513 206.074 210.91H206.233V202.75H210.1V224.568H206.308V221.99H206.074C205.875 222.388 205.587 222.81 205.211 223.258C204.834 223.698 204.337 224.074 203.719 224.387C203.101 224.699 202.324 224.856 201.386 224.856ZM202.462 221.692C203.279 221.692 203.975 221.471 204.55 221.031C205.125 220.584 205.562 219.962 205.86 219.167C206.159 218.371 206.308 217.444 206.308 216.386C206.308 215.328 206.159 214.408 205.86 213.627C205.569 212.846 205.136 212.238 204.561 211.805C203.993 211.372 203.293 211.155 202.462 211.155C201.603 211.155 200.885 211.379 200.31 211.827C199.735 212.274 199.301 212.892 199.01 213.68C198.719 214.469 198.574 215.371 198.574 216.386C198.574 217.409 198.719 218.322 199.01 219.124C199.309 219.92 199.745 220.548 200.321 221.01C200.903 221.464 201.617 221.692 202.462 221.692ZM221.454 224.888C219.814 224.888 218.397 224.547 217.204 223.865C216.018 223.176 215.105 222.203 214.466 220.946C213.827 219.682 213.507 218.194 213.507 216.482C213.507 214.799 213.827 213.322 214.466 212.05C215.112 210.772 216.014 209.778 217.172 209.067C218.329 208.35 219.689 207.991 221.252 207.991C222.26 207.991 223.212 208.155 224.107 208.481C225.009 208.801 225.805 209.298 226.493 209.973C227.189 210.648 227.736 211.507 228.134 212.551C228.532 213.588 228.731 214.824 228.731 216.258V217.441H215.318V214.841H225.034C225.027 214.103 224.867 213.446 224.555 212.871C224.242 212.288 223.805 211.83 223.244 211.496C222.69 211.162 222.044 210.996 221.305 210.996C220.517 210.996 219.824 211.187 219.228 211.571C218.631 211.947 218.166 212.444 217.832 213.062C217.506 213.673 217.339 214.344 217.331 215.076V217.345C217.331 218.297 217.506 219.113 217.854 219.795C218.202 220.47 218.688 220.988 219.313 221.351C219.938 221.706 220.67 221.883 221.508 221.883C222.069 221.883 222.577 221.805 223.031 221.649C223.486 221.486 223.88 221.248 224.214 220.935C224.547 220.623 224.8 220.236 224.97 219.774L228.571 220.179C228.344 221.13 227.91 221.961 227.271 222.672C226.639 223.375 225.829 223.922 224.842 224.312C223.855 224.696 222.726 224.888 221.454 224.888ZM231.993 224.568V208.204H235.733V210.932H235.903C236.201 209.987 236.713 209.259 237.437 208.748C238.169 208.229 239.003 207.97 239.941 207.97C240.154 207.97 240.392 207.981 240.654 208.002C240.924 208.016 241.148 208.041 241.326 208.077V211.624C241.162 211.567 240.903 211.518 240.548 211.475C240.2 211.425 239.863 211.4 239.536 211.4C238.833 211.4 238.201 211.553 237.64 211.858C237.086 212.157 236.649 212.572 236.329 213.105C236.01 213.638 235.85 214.252 235.85 214.948V224.568H231.993Z" fill="#0191FD"/>
<path d="M126.605 118.94C127.032 116.212 129.589 114.346 132.317 114.772L198.552 125.118L188.947 186.609C188.521 189.337 185.964 191.203 183.235 190.777L121.94 181.202C119.212 180.776 117.346 178.218 117.772 175.49L126.605 118.94Z" fill="#0191FD"/>
<path d="M112 130C112 127.239 114.239 125 117 125H187V190C187 192.761 184.761 195 182 195H117C114.239 195 112 192.761 112 190V130Z" fill="#0063AD"/>
<path d="M187.114 124.901L187.006 146.22L165.795 125.009L187.114 124.901Z" fill="#0191FD"/>
<path d="M163.309 148.663L165.807 124.977L186.995 146.165L163.309 148.663Z" fill="#065693"/>
<path d="M181.22 137.75L183.905 122.822L196.257 139.728L181.22 137.75Z" fill="#065693"/>
<path d="M198.573 125.052L196.283 139.734L183.885 122.803L198.573 125.052Z" fill="white"/>
<rect x="140" y="152" width="40" height="5" rx="2.5" fill="white"/>
<rect x="120" y="162" width="60" height="5" rx="2.5" fill="white"/>
<rect x="120" y="172" width="60" height="5" rx="2.5" fill="white"/>
</svg>
